<?xml version="1.0" standalone="no"?>
<svg id="piechartSVG" width="800" height="400" xmlns="http://www.w3.org/2000/svg"><rect class="backgroundPieChart" height="400" width="800" fill="rgba(21, 32, 43, 1)"></rect><g class="containPieChart" transform="translate(0,80)"><g class="titleChart"><text class="titleChart" text-anchor="middle" x="400" y="-30" fill="rgba(255, 255, 255, 1)" font-size="20" font-family="Segoe UI" data-xaxis="Kategorien" data-yaxis="Relative Häufigkeit">Herkunftsregion</text></g><path class="slice" stroke="none" stroke-width="2px" opacity="1" fill="rgb(78, 121, 167)" transform="translate(400,160)" d="M7.83773951454306e-15,-128A128,128,0,1,1,-90.8661788660906,90.15174728354202L0,0Z"></path><path class="slice" stroke="none" stroke-width="2px" opacity="1" fill="rgb(242, 142, 44)" transform="translate(400,160)" d="M-90.8661788660906,90.15174728354202A128,128,0,0,1,-114.36817865150385,-57.47973305381384L0,0Z"></path><path class="slice" stroke="none" stroke-width="2px" opacity="1" fill="rgb(225, 87, 89)" transform="translate(400,160)" d="M-114.36817865150385,-57.47973305381384A128,128,0,0,1,9.017361917798684e-14,-128L0,0Z"></path><polyline transform="translate(400,160)" stroke="rgb(128, 141, 154)" stroke-width="3" style="fill: none;" points="59.07984391090309,24.6083734420487,132.92964879953195,55.36884024460957,152,55.36884024460957"></polyline><polyline transform="translate(400,160)" stroke="rgb(128, 141, 154)" stroke-width="3" style="fill: none;" points="-63.20413133859353,10.061698749904004,-142.20929551183542,22.638822187284006,-152,22.638822187284006"></polyline><polyline transform="translate(400,160)" stroke="rgb(128, 141, 154)" stroke-width="3" style="fill: none;" points="-33.59053841692592,-54.47637771420769,-75.57871143808332,-122.5718498569673,-152,-122.5718498569673"></polyline><text opacity="1" class="sliceLabel" transform="translate(558.4,215.36884024460957)" text-anchor="start" text-align="middle" font-size="20" fill="rgba(255, 255, 255, 1)" font-family="Segoe UI" data-x="Nordamerika" data-y="62.56">Nordamerika</text><text opacity="1" class="sliceLabel" transform="translate(241.6,182.638822187284)" text-anchor="end" text-align="middle" font-size="20" fill="rgba(255, 255, 255, 1)" font-family="Segoe UI" data-x="Asien" data-y="19.85">Asien</text><text opacity="1" class="sliceLabel" transform="translate(241.6,37.428150143032695)" text-anchor="end" text-align="middle" font-size="20" fill="rgba(255, 255, 255, 1)" font-family="Segoe UI" data-x="Europa" data-y="17.59">Europa</text></g></svg>