<svg width="800" height="400" xmlns="http://www.w3.org/2000/svg"><path class="backgroundBoxplot" fill="rgba(243, 237, 237, 1)" d="M0 0h800v400H0z"/><g class="containBoxplot" transform="translate(120 100)"><g class="y-axis" fill="none" font-size="10" font-family="sans-serif" text-anchor="end"><g class="tick"><path stroke="rgba(99, 95, 93, 1)" d="M0 210.5h660"/><text fill="rgba(99, 95, 93, 1)" x="-10" dy=".32em" font-size="18" font-family="Segoe UI" transform="translate(0 210.5)">5</text></g><g class="tick"><path stroke="rgba(99, 95, 93, 1)" d="M0 187.167h660"/><text fill="rgba(99, 95, 93, 1)" x="-10" dy=".32em" font-size="18" font-family="Segoe UI" transform="translate(0 187.167)">10</text></g><g class="tick"><path stroke="rgba(99, 95, 93, 1)" d="M0 163.833h660"/><text fill="rgba(99, 95, 93, 1)" x="-10" dy=".32em" font-size="18" font-family="Segoe UI" transform="translate(0 163.833)">15</text></g><g class="tick"><path stroke="rgba(99, 95, 93, 1)" d="M0 140.5h660"/><text fill="rgba(99, 95, 93, 1)" x="-10" dy=".32em" font-size="18" font-family="Segoe UI" transform="translate(0 140.5)">20</text></g><g class="tick"><path stroke="rgba(99, 95, 93, 1)" d="M0 117.167h660"/><text fill="rgba(99, 95, 93, 1)" x="-10" dy=".32em" font-size="18" font-family="Segoe UI" transform="translate(0 117.167)">25</text></g><g class="tick"><path stroke="rgba(99, 95, 93, 1)" d="M0 93.833h660"/><text fill="rgba(99, 95, 93, 1)" x="-10" dy=".32em" font-size="18" font-family="Segoe UI" transform="translate(0 93.833)">30</text></g><g class="tick"><path stroke="rgba(99, 95, 93, 1)" d="M0 70.5h660"/><text fill="rgba(99, 95, 93, 1)" x="-10" dy=".32em" font-size="18" font-family="Segoe UI" transform="translate(0 70.5)">35</text></g><g class="tick"><path stroke="rgba(99, 95, 93, 1)" d="M0 47.167h660"/><text fill="rgba(99, 95, 93, 1)" x="-10" dy=".32em" font-size="18" font-family="Segoe UI" transform="translate(0 47.167)">40</text></g><g class="tick"><path stroke="rgba(99, 95, 93, 1)" d="M0 23.833h660"/><text fill="rgba(99, 95, 93, 1)" x="-10" dy=".32em" font-size="18" font-family="Segoe UI" transform="translate(0 23.833)">45</text></g><g class="tick"><path stroke="rgba(99, 95, 93, 1)" d="M0 .5h660"/><text fill="rgba(99, 95, 93, 1)" x="-10" dy=".32em" font-size="18" font-family="Segoe UI" transform="translate(0 .5)">50</text></g><text class="axis-label" transform="rotate(-90)" style="text-anchor:middle" y="-60" x="-105" fill="rgba(142, 136, 131, 1)" font-size="20" font-family="Segoe UI">Meilen pro Gallone</text></g><g class="x-axis" fill="none" font-size="10" font-family="sans-serif" text-anchor="middle"><text fill="rgba(99, 95, 93, 1)" y="16" dy=".15em" style="text-anchor:end" dx="-.8em" font-size="18" font-family="Segoe UI" transform="rotate(-30 465.199 -168.684)" class="tick">Nordamerika</text><text fill="rgba(99, 95, 93, 1)" y="16" dy=".15em" style="text-anchor:end" dx="-.8em" font-size="18" font-family="Segoe UI" transform="rotate(-30 556.865 -510.788)" class="tick">Asien</text><text fill="rgba(99, 95, 93, 1)" y="16" dy=".15em" style="text-anchor:end" dx="-.8em" font-size="18" font-family="Segoe UI" transform="rotate(-30 648.532 -852.893)" class="tick">Europa</text><text class="axis-label" y="120" x="330" fill="rgba(142, 136, 131, 1)" font-size="20" font-family="Segoe UI" transform="translate(0 210)">Herkunft</text></g><g class="titleChart"><text class="titleChart" text-anchor="middle" x="330" y="-40" fill="rgba(99, 79, 93, 1)" font-size="24" font-family="Segoe UI">Verteilung des Kraftstoffverbrauchs gruppiert durch Herkunft</text></g><rect class="iqr" rx="5" fill="#fbb4ae" x="110" y="121.333" data-maximum="39" data-quantil3="24" data-median="18.5" data-quantil1="15" data-minimum="9" data-skewness=".82" data-kurtosis=".08" width="73.333" stroke="#000" height="42"/><rect class="iqr" rx="5" fill="#b3cde3" x="293.333" y="74.433" data-maximum="46.6" data-quantil3="34.05" data-median="31.6" data-quantil1="25.7" data-minimum="18" data-skewness=".01" data-kurtosis="-.27" width="73.333" stroke="#000" height="38.967"/><rect class="iqr" rx="5" fill="#ccebc5" x="476.667" y="90.3" data-maximum="44.3" data-quantil3="30.65" data-median="26.5" data-quantil1="24" data-minimum="16.2" data-skewness=".7" data-kurtosis=".25" width="73.333" stroke="#000" height="31.033"/><path class="medianLine" style="stroke:#000" d="M110 147h73.333M293.333 85.867h73.334M476.667 109.667H550"/><path class="upperWhiskerHor" style="stroke:#000" d="M110 58.333h73.333M293.333 15.983h73.334M476.667 43.75H550"/><path class="lowerWhiskerHor" style="stroke:#000" d="M110 191.333h73.333M293.333 149.333h73.334M476.667 157.733H550"/><path class="upperWhiskerVert" style="stroke:#000" d="M146.667 121.333v-63M330 74.433v-58.45M513.333 90.3V43.75"/><path class="lowerWhiskerVert" style="stroke:#000" d="M146.667 163.333v28M330 113.4v35.933M513.333 121.333v36.4"/><circle class="highOutlier" style="stroke:#000;stroke-width:1.5px;fill:#fbb4ae" r="4" cx="130.667" cy="56" data-y="38"/><circle class="highOutlier" style="stroke:#000;stroke-width:1.5px;fill:#fbb4ae" r="4" cx="152.667" cy="56" data-y="38"/><circle class="highOutlier" style="stroke:#000;stroke-width:1.5px;fill:#fbb4ae" r="4" cx="167.667" cy="51.333" data-y="39"/><circle class="highOutlier" style="stroke:#000;stroke-width:1.5px;fill:#b3cde3" r="4" cx="311" cy="15.867" data-y="46.6"/><circle class="highOutlier" style="stroke:#000;stroke-width:1.5px;fill:#ccebc5" r="4" cx="503.333" cy="42.467" data-y="40.9"/><circle class="highOutlier" style="stroke:#000;stroke-width:1.5px;fill:#ccebc5" r="4" cx="520.333" cy="39.667" data-y="41.5"/><circle class="highOutlier" style="stroke:#000;stroke-width:1.5px;fill:#ccebc5" r="4" cx="493.333" cy="32.2" data-y="43.1"/><circle class="highOutlier" style="stroke:#000;stroke-width:1.5px;fill:#ccebc5" r="4" cx="497.333" cy="30.8" data-y="43.4"/><circle class="highOutlier" style="stroke:#000;stroke-width:1.5px;fill:#ccebc5" r="4" cx="510.333" cy="28" data-y="44"/><circle class="highOutlier" style="stroke:#000;stroke-width:1.5px;fill:#ccebc5" r="4" cx="520.333" cy="26.6" data-y="44.3"/></g></svg>