<svg width="800" height="400" xmlns="http://www.w3.org/2000/svg"><path class="backgroundPieChart" fill="rgba(21, 32, 43, 1)" d="M0 0h800v400H0z"/><g class="containPieChart"><g class="titleChart"><text class="titleChart" text-anchor="middle" x="400" y="-30" fill="rgba(255, 255, 255, 1)" font-size="20" font-family="Segoe UI" data-xaxis="Kategorien" data-yaxis="Relative Häufigkeit" transform="translate(0 80)">Herkunftsregion</text></g><path class="slice" fill="#4E79A7" d="M400 112a128 128 0 1 1-90.866 218.152L400 240z"/><path class="slice" fill="#F28E2C" d="M309.134 330.152a128 128 0 0 1-23.502-147.632L400 240z"/><path class="slice" fill="#E15759" d="M285.632 182.52A128 128 0 0 1 400 112v128z"/><path transform="translate(400 240)" stroke="#808D9A" stroke-width="3" style="fill:none" d="m59.08 24.608 73.85 30.76H152M-63.204 10.062l-79.005 12.577H-152M-33.59-54.476l-41.989-68.096H-152"/><text class="sliceLabel" transform="translate(558.4 295.369)" font-size="20" fill="rgba(255, 255, 255, 1)" font-family="Segoe UI" data-x="Nordamerika" data-y="62.56">Nordamerika</text><text class="sliceLabel" transform="translate(241.6 262.639)" text-anchor="end" font-size="20" fill="rgba(255, 255, 255, 1)" font-family="Segoe UI" data-x="Asien" data-y="19.85">Asien</text><text class="sliceLabel" transform="translate(241.6 117.428)" text-anchor="end" font-size="20" fill="rgba(255, 255, 255, 1)" font-family="Segoe UI" data-x="Europa" data-y="17.59">Europa</text></g></svg>