<svg width="800" height="400" xmlns="http://www.w3.org/2000/svg"><path class="backgroundLineChart" fill="rgba(0, 0, 0, 1)" d="M0 0h800v400H0z"/><g class="containLineChart"><g class="y-axis" fill="none" font-size="10" font-family="sans-serif" text-anchor="end"><g class="tick"><path stroke="rgba(160, 157, 157, 1)" d="M100 280.5h680"/><text fill="rgba(160, 157, 157, 1)" x="-10" dy=".32em" font-size="16" font-family="Arial Unicode MS" transform="translate(100 280.5)">10</text></g><g class="tick"><path stroke="rgba(160, 157, 157, 1)" d="M100 265.115h680"/><text fill="rgba(160, 157, 157, 1)" x="-10" dy=".32em" font-size="16" font-family="Arial Unicode MS" transform="translate(100 265.115)">12</text></g><g class="tick"><path stroke="rgba(160, 157, 157, 1)" d="M100 249.73h680"/><text fill="rgba(160, 157, 157, 1)" x="-10" dy=".32em" font-size="16" font-family="Arial Unicode MS" transform="translate(100 249.73)">14</text></g><g class="tick"><path stroke="rgba(160, 157, 157, 1)" d="M100 234.346h680"/><text fill="rgba(160, 157, 157, 1)" x="-10" dy=".32em" font-size="16" font-family="Arial Unicode MS" transform="translate(100 234.346)">16</text></g><g class="tick"><path stroke="rgba(160, 157, 157, 1)" d="M100 218.962h680"/><text fill="rgba(160, 157, 157, 1)" x="-10" dy=".32em" font-size="16" font-family="Arial Unicode MS" transform="translate(100 218.962)">18</text></g><g class="tick"><path stroke="rgba(160, 157, 157, 1)" d="M100 203.577h680"/><text fill="rgba(160, 157, 157, 1)" x="-10" dy=".32em" font-size="16" font-family="Arial Unicode MS" transform="translate(100 203.577)">20</text></g><g class="tick"><path stroke="rgba(160, 157, 157, 1)" d="M100 188.192h680"/><text fill="rgba(160, 157, 157, 1)" x="-10" dy=".32em" font-size="16" font-family="Arial Unicode MS" transform="translate(100 188.192)">22</text></g><g class="tick"><path stroke="rgba(160, 157, 157, 1)" d="M100 172.808h680"/><text fill="rgba(160, 157, 157, 1)" x="-10" dy=".32em" font-size="16" font-family="Arial Unicode MS" transform="translate(100 172.808)">24</text></g><g class="tick"><path stroke="rgba(160, 157, 157, 1)" d="M100 157.423h680"/><text fill="rgba(160, 157, 157, 1)" x="-10" dy=".32em" font-size="16" font-family="Arial Unicode MS" transform="translate(100 157.423)">26</text></g><g class="tick"><path stroke="rgba(160, 157, 157, 1)" d="M100 142.038h680"/><text fill="rgba(160, 157, 157, 1)" x="-10" dy=".32em" font-size="16" font-family="Arial Unicode MS" transform="translate(100 142.038)">28</text></g><g class="tick"><path stroke="rgba(160, 157, 157, 1)" d="M100 126.654h680"/><text fill="rgba(160, 157, 157, 1)" x="-10" dy=".32em" font-size="16" font-family="Arial Unicode MS" transform="translate(100 126.654)">30</text></g><g class="tick"><path stroke="rgba(160, 157, 157, 1)" d="M100 111.27h680"/><text fill="rgba(160, 157, 157, 1)" x="-10" dy=".32em" font-size="16" font-family="Arial Unicode MS" transform="translate(100 111.27)">32</text></g><g class="tick"><path stroke="rgba(160, 157, 157, 1)" d="M100 95.885h680"/><text fill="rgba(160, 157, 157, 1)" x="-10" dy=".32em" font-size="16" font-family="Arial Unicode MS" transform="translate(100 95.885)">34</text></g><g class="tick"><path stroke="rgba(160, 157, 157, 1)" d="M100 80.5h680"/><text fill="rgba(160, 157, 157, 1)" x="-10" dy=".32em" font-size="16" font-family="Arial Unicode MS" transform="translate(100 80.5)">36</text></g><text class="axis-label" transform="rotate(-90 90 -10)" style="text-anchor:middle" y="-50" x="-100" fill="rgba(255, 255, 255, 1)" font-size="20" font-family="Arial Unicode MS">Temperatur in C</text></g><g class="x-axis" fill="none" font-size="10" font-family="sans-serif" text-anchor="middle"><g class="tick"><path stroke="rgba(160, 157, 157, 1)" d="M100.5 280V80"/><text fill="rgba(160, 157, 157, 1)" y="20" dy=".15em" style="text-anchor:end" dx="-.8em" transform="rotate(-30 572.737 -47.536)" font-size="16" font-family="Arial Unicode MS">01.01.2017</text></g><g class="tick"><path stroke="rgba(160, 157, 157, 1)" d="M142.64 280V80"/><text fill="rgba(160, 157, 157, 1)" y="20" dy=".15em" style="text-anchor:end" dx="-.8em" transform="rotate(-30 593.807 -126.169)" font-size="16" font-family="Arial Unicode MS">08.01.2017</text></g><g class="tick"><path stroke="rgba(160, 157, 157, 1)" d="M184.779 280V80"/><text fill="rgba(160, 157, 157, 1)" y="20" dy=".15em" style="text-anchor:end" dx="-.8em" transform="rotate(-30 614.877 -204.802)" font-size="16" font-family="Arial Unicode MS">15.01.2017</text></g><g class="tick"><path stroke="rgba(160, 157, 157, 1)" d="M226.918 280V80"/><text fill="rgba(160, 157, 157, 1)" y="20" dy=".15em" style="text-anchor:end" dx="-.8em" transform="rotate(-30 635.946 -283.435)" font-size="16" font-family="Arial Unicode MS">22.01.2017</text></g><g class="tick"><path stroke="rgba(160, 157, 157, 1)" d="M269.058 280V80"/><text fill="rgba(160, 157, 157, 1)" y="20" dy=".15em" style="text-anchor:end" dx="-.8em" transform="rotate(-30 657.016 -362.069)" font-size="16" font-family="Arial Unicode MS">29.01.2017</text></g><g class="tick"><path stroke="rgba(160, 157, 157, 1)" d="M311.197 280V80"/><text fill="rgba(160, 157, 157, 1)" y="20" dy=".15em" style="text-anchor:end" dx="-.8em" transform="rotate(-30 678.086 -440.702)" font-size="16" font-family="Arial Unicode MS">05.02.2017</text></g><g class="tick"><path stroke="rgba(160, 157, 157, 1)" d="M353.337 280V80"/><text fill="rgba(160, 157, 157, 1)" y="20" dy=".15em" style="text-anchor:end" dx="-.8em" transform="rotate(-30 699.155 -519.335)" font-size="16" font-family="Arial Unicode MS">12.02.2017</text></g><g class="tick"><path stroke="rgba(160, 157, 157, 1)" d="M395.476 280V80"/><text fill="rgba(160, 157, 157, 1)" y="20" dy=".15em" style="text-anchor:end" dx="-.8em" transform="rotate(-30 720.225 -597.968)" font-size="16" font-family="Arial Unicode MS">19.02.2017</text></g><g class="tick"><path stroke="rgba(160, 157, 157, 1)" d="M437.615 280V80"/><text fill="rgba(160, 157, 157, 1)" y="20" dy=".15em" style="text-anchor:end" dx="-.8em" transform="rotate(-30 741.295 -676.602)" font-size="16" font-family="Arial Unicode MS">26.02.2017</text></g><g class="tick"><path stroke="rgba(160, 157, 157, 1)" d="M479.755 280V80"/><text fill="rgba(160, 157, 157, 1)" y="20" dy=".15em" style="text-anchor:end" dx="-.8em" transform="rotate(-30 762.365 -755.235)" font-size="16" font-family="Arial Unicode MS">05.03.2017</text></g><g class="tick"><path stroke="rgba(160, 157, 157, 1)" d="M521.894 280V80"/><text fill="rgba(160, 157, 157, 1)" y="20" dy=".15em" style="text-anchor:end" dx="-.8em" transform="rotate(-30 783.434 -833.868)" font-size="16" font-family="Arial Unicode MS">12.03.2017</text></g><g class="tick"><path stroke="rgba(160, 157, 157, 1)" d="M564.034 280V80"/><text fill="rgba(160, 157, 157, 1)" y="20" dy=".15em" style="text-anchor:end" dx="-.8em" transform="rotate(-30 804.504 -912.501)" font-size="16" font-family="Arial Unicode MS">19.03.2017</text></g><g class="tick"><path stroke="rgba(160, 157, 157, 1)" d="M606.173 280V80"/><text fill="rgba(160, 157, 157, 1)" y="20" dy=".15em" style="text-anchor:end" dx="-.8em" transform="rotate(-30 825.574 -991.135)" font-size="16" font-family="Arial Unicode MS">26.03.2017</text></g><g class="tick"><path stroke="rgba(160, 157, 157, 1)" d="M648.062 280V80"/><text fill="rgba(160, 157, 157, 1)" y="20" dy=".15em" style="text-anchor:end" dx="-.8em" transform="rotate(-30 846.518 -1069.3)" font-size="16" font-family="Arial Unicode MS">02.04.2017</text></g><g class="tick"><path stroke="rgba(160, 157, 157, 1)" d="M690.201 280V80"/><text fill="rgba(160, 157, 157, 1)" y="20" dy=".15em" style="text-anchor:end" dx="-.8em" transform="rotate(-30 867.588 -1147.933)" font-size="16" font-family="Arial Unicode MS">09.04.2017</text></g><g class="tick"><path stroke="rgba(160, 157, 157, 1)" d="M732.34 280V80"/><text fill="rgba(160, 157, 157, 1)" y="20" dy=".15em" style="text-anchor:end" dx="-.8em" transform="rotate(-30 888.657 -1226.566)" font-size="16" font-family="Arial Unicode MS">16.04.2017</text></g><g class="tick"><path stroke="rgba(160, 157, 157, 1)" d="M774.48 280V80"/><text fill="rgba(160, 157, 157, 1)" y="20" dy=".15em" style="text-anchor:end" dx="-.8em" transform="rotate(-30 909.727 -1305.2)" font-size="16" font-family="Arial Unicode MS">23.04.2017</text></g><text class="axis-label" y="100" x="340" fill="rgba(254, 254, 254, 1)" font-size="20" font-family="Arial Unicode MS" transform="translate(100 280)">Datum</text></g><g class="titleChart"><text class="titleChart" text-anchor="middle" x="340" y="-30" fill="rgba(255, 255, 255, 1)" font-size="30" font-family="Arial Unicode MS" transform="translate(100 80)">Verlauf der Durchschnittstemperatur</text></g><path fill="none" stroke-width="4" stroke-linejoin="round" stroke-linecap="round" class="line-path" stroke="rgba(180, 140, 31, 1)" d="m100 234.515 6.02-19.9 6.02 10.684 6.02-12.222 6.02 2.393 6.02-7.148 6.02 35.46 6.02-7.507 6.02 8.56 6.02 18.926 6.02 8.547 6.02-6.073 6.019-11.122 6.02.272 6.02-24.883 6.02 13.729 6.02 22.521 6.02-10.15 6.02-12.133 6.02-4.955 6.02-.986 6.02-23.451 6.02 2.48 6.02-1.771 6.02-20.401 6.019 37.088 6.02-2.473 6.02 12.587 6.02-6.177 6.02-5.983 6.02 2.458 6.02 6.73 6.02-14.16 6.02 11.188 6.02-23.566 6.02.526 6.02 13.406 6.019 13.568 6.02-4.423 6.02 2.5 6.02 5.449 6.02-7.372 6.02-4.808 6.02-.64 6.02-4.168 6.02-5.357 6.02-20.604 6.02-8.077 6.02 1.346 6.019-9.528 6.02-7.78 6.02 11.86 6.02 20.833 6.02 3.846 6.02-3.846 6.02.961 6.02 1.923 6.02-8.654 6.02-26.602 6.02-8.679 6.02 5.474 6.019 25 6.02 10.577 6.02-4.808 6.02-1.923 6.02-20.192 6.02 8.304 6.02 5.844 6.02 6.525 6.02 10.801 6.02 8.91 6.02-.534 6.02-4.273 6.02-14.424 6.019-31.73 6.02 23.846 6.02-29.172 6.02.197 6.02 10.257 6.02-12.82 6.02-17.308 6.02-5.77 6.02-7.05 6.02 18.589 6.02-20 5.768-3.077 6.02-2.991 6.02-8.547 6.02 13.186 6.02-10.302 6.02-5.77 6.02 12.5 6.02-5.768 6.02-3.334 6.02 13.097 6.02-15.319 6.02 32.479 6.02 10.577 6.02-11.539 6.02-5.632 6.02-10.714h6.019l6.02-3.205 6.02-6.41 6.02-5.556 6.02 1.71 6.02-11.966 6.02-11.111 6.02 3.846 6.02-7.693 6.02 1.924 6.02 10.384 6.02.192L780 110.77" stroke-dasharray="1411.3607177734375,1411.3607177734375"/></g></svg>