<svg width="800" height="400" xmlns="http://www.w3.org/2000/svg"><path class="backgroundBarChart" fill="rgba(255, 255, 255, 1)" d="M0 0h800v400H0z"/><g class="containBarChart"><g class="y-axis" fill="none" font-size="10" font-family="sans-serif" text-anchor="end"><g class="tick"><path stroke="rgba(99, 95, 93, 0.3)" d="M100 320.5h690"/><text fill="rgba(99, 95, 93, 1)" x="-10" dy=".32em" font-size="16" font-family="Segoe UI" transform="translate(100 320.5)">0</text></g><g class="tick"><path stroke="rgba(99, 95, 93, 0.3)" d="M100 302.038h690"/><text fill="rgba(99, 95, 93, 1)" x="-10" dy=".32em" font-size="16" font-family="Segoe UI" transform="translate(100 302.038)">20</text></g><g class="tick"><path stroke="rgba(99, 95, 93, 0.3)" d="M100 283.577h690"/><text fill="rgba(99, 95, 93, 1)" x="-10" dy=".32em" font-size="16" font-family="Segoe UI" transform="translate(100 283.577)">40</text></g><g class="tick"><path stroke="rgba(99, 95, 93, 0.3)" d="M100 265.115h690"/><text fill="rgba(99, 95, 93, 1)" x="-10" dy=".32em" font-size="16" font-family="Segoe UI" transform="translate(100 265.115)">60</text></g><g class="tick"><path stroke="rgba(99, 95, 93, 0.3)" d="M100 246.654h690"/><text fill="rgba(99, 95, 93, 1)" x="-10" dy=".32em" font-size="16" font-family="Segoe UI" transform="translate(100 246.654)">80</text></g><g class="tick"><path stroke="rgba(99, 95, 93, 0.3)" d="M100 228.192h690"/><text fill="rgba(99, 95, 93, 1)" x="-10" dy=".32em" font-size="16" font-family="Segoe UI" transform="translate(100 228.192)">100</text></g><g class="tick"><path stroke="rgba(99, 95, 93, 0.3)" d="M100 209.73h690"/><text fill="rgba(99, 95, 93, 1)" x="-10" dy=".32em" font-size="16" font-family="Segoe UI" transform="translate(100 209.73)">120</text></g><g class="tick"><path stroke="rgba(99, 95, 93, 0.3)" d="M100 191.27h690"/><text fill="rgba(99, 95, 93, 1)" x="-10" dy=".32em" font-size="16" font-family="Segoe UI" transform="translate(100 191.27)">140</text></g><g class="tick"><path stroke="rgba(99, 95, 93, 0.3)" d="M100 172.808h690"/><text fill="rgba(99, 95, 93, 1)" x="-10" dy=".32em" font-size="16" font-family="Segoe UI" transform="translate(100 172.808)">160</text></g><g class="tick"><path stroke="rgba(99, 95, 93, 0.3)" d="M100 154.346h690"/><text fill="rgba(99, 95, 93, 1)" x="-10" dy=".32em" font-size="16" font-family="Segoe UI" transform="translate(100 154.346)">180</text></g><g class="tick"><path stroke="rgba(99, 95, 93, 0.3)" d="M100 135.885h690"/><text fill="rgba(99, 95, 93, 1)" x="-10" dy=".32em" font-size="16" font-family="Segoe UI" transform="translate(100 135.885)">200</text></g><g class="tick"><path stroke="rgba(99, 95, 93, 0.3)" d="M100 117.423h690"/><text fill="rgba(99, 95, 93, 1)" x="-10" dy=".32em" font-size="16" font-family="Segoe UI" transform="translate(100 117.423)">220</text></g><g class="tick"><path stroke="rgba(99, 95, 93, 0.3)" d="M100 98.962h690"/><text fill="rgba(99, 95, 93, 1)" x="-10" dy=".32em" font-size="16" font-family="Segoe UI" transform="translate(100 98.962)">240</text></g><g class="tick"><path stroke="rgba(99, 95, 93, 0.3)" d="M100 80.5h690"/><text fill="rgba(99, 95, 93, 1)" x="-10" dy=".32em" font-size="16" font-family="Segoe UI" transform="translate(100 80.5)">260</text></g><text class="axis-label" transform="rotate(-90 90 -10)" text-anchor="middle" y="-60" x="-120" font-family="Segoe UI" font-size="18" fill="rgba(142, 136, 131, 1)">Absolute Häufigkeit</text></g><g class="x-axis" fill="none" font-size="10" font-family="sans-serif" text-anchor="middle"><g class="tick"><path stroke="rgba(99, 95, 93, 0.3)" d="M235.91 320v6"/><text fill="rgba(99, 95, 93, 1)" y="16" dy=".15em" text-anchor="end" dx="-.8em" font-size="16" font-family="Segoe UI" transform="rotate(-30 715.083 -280.212)">Nordamerika</text></g><g class="tick"><path stroke="rgba(99, 95, 93, 0.3)" d="M445 320v6"/><text fill="rgba(99, 95, 93, 1)" y="16" dy=".15em" text-anchor="end" dx="-.8em" font-size="16" font-family="Segoe UI" transform="rotate(-30 819.628 -670.381)">Asien</text></g><g class="tick"><path stroke="rgba(99, 95, 93, 0.3)" d="M654.09 320v6"/><text fill="rgba(99, 95, 93, 1)" y="16" dy=".15em" text-anchor="end" dx="-.8em" font-size="16" font-family="Segoe UI" transform="rotate(-30 924.174 -1060.55)">Europa</text></g><text class="axis-label" y="100" x="345" font-size="20" font-family="Segoe UI" fill="rgba(142, 136, 131, 1)" transform="translate(100 320)">Herkunftsregion</text></g><g class="titleChart"><text class="titleChart" text-anchor="middle" x="345" y="-30" fill="rgba(99, 79, 93, 1)" font-size="20" font-family="Segoe UI" transform="translate(100 80)">Herkunftsregion</text></g><path class="bar" fill="#1f77b4" data-x="249" data-y="Nordamerika" d="M162.727 90.154h146.364V320H162.727z"/><path class="bar" fill="#ff7f0e" data-x="79" data-y="Asien" d="M371.818 247.077h146.364V320H371.818z"/><path class="bar" fill="#2ca02c" data-x="70" data-y="Europa" d="M580.909 255.385h146.364V320H580.909z"/><text text-anchor="middle" class="barValue" font-size="16" font-family="Segoe UI" fill="rgba(99, 95, 93, 1)" x="135.909" y="5.154" transform="translate(100 80)">249</text><text text-anchor="middle" class="barValue" font-size="16" font-family="Segoe UI" fill="rgba(99, 95, 93, 1)" x="345" y="162.077" transform="translate(100 80)">79</text><text text-anchor="middle" class="barValue" font-size="16" font-family="Segoe UI" fill="rgba(99, 95, 93, 1)" x="554.091" y="170.385" transform="translate(100 80)">70</text></g></svg>